#!OML:ASF H:\Dans Jumps\Project 1\Capture day 1\Session 1\subject.ASF
:FULLY-SPECIFIED
:DEGREES
695
root 0.576413 17.7179 2.34302 5.55275 -0.477191 -1.66145
lowerback -0.443233 -0.326012 -0.225977
upperback 2.85538 -0.477204 1.69607
thorax 3.19761 -0.268788 1.85532
lowerneck -12.1424 0.227584 -1.86424
upperneck 37.4188 0.439417 1.1073
head 15.0479 0.0690989 0.866769
rclavicle -1.19271e-015 -8.15017e-015
rhumerus -23.1588 -8.01666 -83.4401
rradius 31.5796
rwrist 25.5337
rhand -19.1116 -26.1668
rfingers 7.12502
rthumb 7.19739 -56.0244
lclavicle -1.19271e-015 -8.15017e-015
lhumerus -19.5703 -5.22141 88.4588
lradius 24.3092
lwrist 9.43487
lhand -25.3189 -4.40831
lfingers 7.12502
lthumb 1.20359 25.568
rfemur -15.3443 -2.74757 19.8484
rtibia 22.0351
rfoot -10.9095 -2.46786
rtoes 13.3648
lfemur -13.9746 7.95002 -17.6644
ltibia 19.4329
lfoot -8.49667 4.17882
ltoes -1.4781
696
root 0.576212 17.7178 2.34279 5.54331 -0.482577 -1.66006
lowerback -0.453276 -0.3323 -0.222201
upperback 2.85224 -0.485726 1.69649
thorax 3.2003 -0.272945 1.85331
lowerneck -12.1521 0.234048 -1.86028
upperneck 37.4138 0.450894 1.0995
head 15.0476 0.0734134 0.864582
rclavicle 9.93923e-016 3.18055e-015
rhumerus -23.1423 -8.04204 -83.4373
rradius 31.5352
rwrist 25.5705
rhand -19.119 -26.148
rfingers 7.12502
rthumb 7.19031 -56.0059
lclavicle 9.93923e-016 3.18055e-015
lhumerus -19.5665 -5.26197 88.4889
lradius 24.3345
lwrist 9.45704
lhand -25.2938 -4.28459
lfingers 7.12502
lthumb 1.22781 25.6916
rfemur -15.3354 -2.73725 19.8467
rtibia 22.0362
rfoot -10.9114 -2.47268
rtoes 13.3825
lfemur -13.9619 7.94644 -17.6627
ltibia 19.4307
lfoot -8.49531 4.18533
ltoes -1.47001
697
root 0.576015 17.7176 2.34265 5.53406 -0.489224 -1.66285
lowerback -0.463983 -0.337692 -0.213769
upperback 2.84945 -0.49319 1.69787
thorax 3.20366 -0.27647 1.8497
lowerneck -12.1589 0.240208 -1.857
upperneck 37.4053 0.462197 1.09134
head 15.0449 0.0775431 0.862285
rclavicle -1.39149e-015 -1.59028e-015
rhumerus -23.1382 -8.07133 -83.4303
rradius 31.4848
rwrist 25.6092
rhand -19.1262 -26.1431
rfingers 7.12502
rthumb 7.18335 -56.0012
lclavicle -1.39149e-015 -1.59028e-015
lhumerus -19.5674 -5.29468 88.5195
lradius 24.3513
lwrist 9.46116
lhand -25.2636 -4.13012
lfingers 7.12502
lthumb 1.25698 25.8459
rfemur -15.3259 -2.72491 19.8496
rtibia 22.0367
rfoot -10.9146 -2.47784
rtoes 13.4055
lfemur -13.9487 7.94477 -17.6564
ltibia 19.4282
lfoot -8.494 4.19197
ltoes -1.4611
698
root 0.575885 17.7175 2.34273 5.52334 -0.494649 -1.66134
lowerback -0.473965 -0.343312 -0.208686
upperback 2.84656 -0.500855 1.69832
thorax 3.20652 -0.280167 1.84701
lowerneck -12.1623 0.24511 -1.85684
upperneck 37.3946 0.471621 1.08533
head 15.0403 0.080753 0.861114
rclavicle 4.17448e-015 -8.54774e-015
rhumerus -23.1483 -8.09234 -83.4197
rradius 31.4316
rwrist 25.6411
rhand -19.1192 -26.1592
rfingers 7.12502
rthumb 7.1901 -56.017
lclavicle 4.17448e-015 -8.54774e-015
lhumerus -19.5746 -5.3183 88.5513
lradius 24.3575
lwrist 9.4523
lhand -25.2253 -3.94189
lfingers 7.12502
lthumb 1.294 26.0339
rfemur -15.3133 -2.7182 19.8477
rtibia 22.0368
rfoot -10.9193 -2.48002
rtoes 13.4192
lfemur -13.9324 7.94561 -17.6551
ltibia 19.4239
lfoot -8.49519 4.19556
ltoes -1.4547
699
root 0.575795 17.7174 2.34304 5.51103 -0.499199 -1.66089
lowerback -0.481813 -0.348038 -0.200277
upperback 2.84286 -0.507355 1.69821
thorax 3.20727 -0.283172 1.84192
lowerneck -12.1633 0.248653 -1.85837
upperneck 37.3855 0.478488 1.08194
head 15.0359 0.0829935 0.860941
rclavicle 3.08116e-015 4.57205e-015
rhumerus -23.1706 -8.12028 -83.4048
rradius 31.3691
rwrist 25.6772
rhand -19.106 -26.1805
rfingers 7.12502
rthumb 7.20285 -56.0379
lclavicle 3.08116e-015 4.57205e-015
lhumerus -19.5871 -5.33905 88.5836
lradius 24.3487
lwrist 9.43054
lhand -25.1825 -3.753
lfingers 7.12502
lthumb 1.33534 26.2226
rfemur -15.297 -2.71521 19.847
rtibia 22.0354
rfoot -10.9249 -2.47985
rtoes 13.4255
lfemur -13.9133 7.94944 -17.6528
ltibia 19.4192
lfoot -8.49751 4.19666
ltoes -1.45241
700
root 0.575701 17.7174 2.34354 5.49874 -0.504722 -1.65811
lowerback -0.489429 -0.351755 -0.194083
upperback 2.83917 -0.512445 1.69752
thorax 3.20786 -0.285522 1.83753
lowerneck -12.1651 0.25158 -1.85983
upperneck 37.3788 0.484334 1.07886
head 15.033 0.0848444 0.860755
rclavicle -3.77691e-015 -1.03368e-014
rhumerus -23.2027 -8.15207 -83.3858
rradius 31.3007
rwrist 25.7151
rhand -19.0828 -26.2127
rfingers 7.12502
rthumb 7.22526 -56.0694
lclavicle -3.77691e-015 -1.03368e-014
lhumerus -19.6016 -5.35772 88.6165
lradius 24.3252
lwrist 9.40358
lhand -25.1323 -3.56684
lfingers 7.12502
lthumb 1.38376 26.4084
rfemur -15.2794 -2.71323 19.8434
rtibia 22.033
rfoot -10.9311 -2.47749
rtoes 13.4175
lfemur -13.8933 7.95383 -17.6532
ltibia 19.4135
lfoot -8.50079 4.19812
ltoes -1.44785
701
root 0.575582 17.7173 2.34414 5.48674 -0.509687 -1.65729
lowerback -0.494767 -0.354689 -0.185241
upperback 2.83414 -0.516526 1.69742
thorax 3.20573 -0.28729 1.8323
lowerneck -12.1668 0.254521 -1.86086
upperneck 37.3768 0.490823 1.07392
head 15.0323 0.0867562 0.859872
rclavicle -5.41688e-015 7.55382e-015
rhumerus -23.239 -8.20211 -83.3604
rradius 31.2125
rwrist 25.7682
rhand -19.0575 -26.2438
rfingers 7.12502
rthumb 7.24964 -56.0997
lclavicle -5.41688e-015 7.55382e-015
lhumerus -19.6216 -5.37377 88.6509
lradius 24.2886
lwrist 9.3723
lhand -25.0805 -3.3877
lfingers 7.12502
lthumb 1.43381 26.5872
rfemur -15.2609 -2.71092 19.8422
rtibia 22.029
rfoot -10.9362 -2.47635
rtoes 13.4024
lfemur -13.8743 7.95853 -17.6516
ltibia 19.4091
lfoot -8.50466 4.20026
ltoes -1.44971
